<?xml version="1.0" encoding="utf-8"?>
<!-- Generator: Adobe Illustrator 16.0.0, SVG Export Plug-In . SVG Version: 6.00 Build 0)  -->
<!DOCTYPE svg PUBLIC "-//W3C//DTD SVG 1.1//EN" "http://www.w3.org/Graphics/SVG/1.1/DTD/svg11.dtd">
<svg version="1.1" xmlns="http://www.w3.org/2000/svg" xmlns:xlink="http://www.w3.org/1999/xlink" x="0px" y="0px" width="64px"
	 height="64px" viewBox="0 0 64 64" enable-background="new 0 0 64 64" xml:space="preserve">
<g id="cart_add">
	<circle fill="none" stroke="#FFFFFF" stroke-width="2" cx="12.257" cy="6.483" r="0.101"/>
	<g>
		<path fill="#481A0E" d="M47.051,50.037l-30.312,0.342c-0.866,0-2.244-0.497-3.161-1.334c-0.489-0.446-1.052-1.2-1.377-2.45
			c-1.193-4.604-1.73-11.153-2.549-17.425C8.87,23.196,7.955,18.05,7.151,13.786c-0.217-0.987-0.357-1.301-0.812-1.583
			c-1.348-0.622-1.976-0.439-3.458-0.401c-0.889,0.022-1.585-0.86-1.609-1.748C1.249,9.165,2.194,8.265,3.082,8.24
			c0.037,0,0.786-0.041,1.811,0C6.938,8.323,7.59,8.759,8.021,8.973c1.021,0.506,2.272,1.975,2.484,3.09
			c0.821,4.354,1.665,10.276,2.475,16.635c0.803,6.335,1.357,13.576,2.372,16.653c0.534,1.367,0.844,1.554,2.524,1.68
			c4.967,0.371,4.918,0.355,29.285-0.182c0.888,0,1.427,0.801,1.427,1.689C48.588,49.428,47.939,50.037,47.051,50.037z"/>
	</g>
	<g>
		<path fill="#481A0E" d="M22.753,42.849c-1.741,0-2.96,0.017-3.116-0.002c-0.884-0.098-1.686-0.813-1.669-1.7
			c0.014-0.88,0.377-1.796,1.217-2.05c0.23-0.071,2.303-0.007,2.312-0.008c5.542-0.114,14.822-0.429,19.672-1.023
			c0.933-0.114,3.277-0.388,4.092-1.012c0.74-0.566,0.961-2.827,1.034-3.341c0.346-2.38,0.503-11.385,0.674-15.953l-31.053,0.015
			c-0.89-0.001-1.752-1.323-1.751-2.211c0.003-0.889,0.924-1.993,1.812-1.993c0,0,1.527,0,1.528,0H50.39v2.073
			c-0.028,0.75-0.151,18.413-1.077,21.43c-0.326,1.066-0.989,2.183-1.92,2.938c-0.593,0.479-1.244,0.79-1.982,1.055
			c-2.575,0.924-7.703,1.343-15.421,1.59C26.968,42.752,24.749,42.849,22.753,42.849z"/>
	</g>
	<circle fill="#481A0E" cx="17.543" cy="55.77" r="3.882"/>
	<circle fill="#481A0E" cx="43.168" cy="55.77" r="3.882"/>
	<circle fill="#481A0E" cx="47.292" cy="19.785" r="15.437"/>
	<g>
		<g>
			<rect x="37.857" y="17.685" fill="#FFFFFF" width="18.868" height="3.71"/>
		</g>
		<g>
			<rect x="45.862" y="10.353" fill="#FFFFFF" width="3.798" height="18.866"/>
		</g>
	</g>
</g>
</svg>
